<svg width="220" height="220" viewBox="0 0 220 220" fill="none" xmlns="http://www.w3.org/2000/svg">
  <defs>
    <linearGradient id="cognicx-green" x1="0" y1="0" x2="0" y2="1">
      <stop offset="0%" stop-color="#8ade4f"/>
      <stop offset="100%" stop-color="#48b067"/>
    </linearGradient>
    <linearGradient id="cognicx-dark" x1="0" y1="0" x2="1" y2="1">
      <stop offset="0%" stop-color="#1e1f22"/>
      <stop offset="100%" stop-color="#303236"/>
    </linearGradient>
  </defs>
  <rect x="12" y="12" width="196" height="196" rx="40" fill="url(#cognicx-dark)"/>
  <g transform="translate(40 40) scale(1.05)">
    <path d="M63 11c-29 0-52 21.5-52 49s23 49 52 49c12.7 0 24.2-4.3 34-12.7l-11.5-11.2C78 89 71 91.8 63 91.8c-17.5 0-31.5-13.5-31.5-31s14-31 31.5-31c8 0 15 2.7 22.5 8.6L97 26.4C87.2 16 75.7 11 63 11Z" fill="url(#cognicx-green)"/>
    <path d="M116 11c29 0 52 21.5 52 49s-23 49-52 49c-12.7 0-24.2-4.3-34-12.7l11.5-11.2c7.5 4.9 14.5 7.7 22.5 7.7 17.5 0 31.5-13.5 31.5-31s-14-31-31.5-31c-8 0-15 2.7-22.5 8.6L98 26.4C107.8 16 119.3 11 132 11Z" fill="url(#cognicx-green)"/>
    <path d="M86 36 110 72 86 108 72.2 98.5 90 72 72.2 45.5 86 36Z" fill="#2c2d30"/>
  </g>
  <text x="110" y="190" text-anchor="middle" font-family="'Inter', 'Segoe UI', system-ui, sans-serif" font-weight="700" font-size="44" fill="#48b067">Cognicx</text>
</svg>
